<svg xmlns="http://www.w3.org/2000/svg" width="881.4428100585938" height="945.8049926757812" viewBox="-319.83453369140625 -357.48492431640625 881.4428100585938 945.8049926757812"><title>Neo4j Graph Visualization</title><desc>Created using Neo4j (http://www.neo4j.com/)</desc><g class="layer relationships"><g class="relationship" transform="translate(0.13070528774567824 379.23305880177736) rotate(247.6181613822573)"><path class="outline" fill="#A5ABB6" stroke="none" d="M 24.018736134675446,-6.953439040707552 L 24.277555179777966,-5.987513214418485 A 122.36425160676781 122.36425160676781 0 0 1 31.391999661751736,-7.667761490066027 L 31.191322144003436,-8.647418845405326 A 123.36425160676781 123.36425160676781 0 0 0 24.018736134675446,-6.953439040707552 Z M 77.10803497212903,-9.328647435999514 L 76.93650812572743,-8.34346798992712 A 122.36425160676781 122.36425160676781 0 0 1 84.09766730271114,-6.875015131710149 L 83.40751687892933,-3.955478799935223 L 91.0249438141496,-5.75125353151508 L 85.01786786775355,-10.767730240743383 L 84.32771744397174,-7.848193908968457 A 123.36425160676781 123.36425160676781 0 0 0 77.10803497212903,-9.328647435999514"/><text text-anchor="middle" pointer-events="none" font-size="8px" fill="#000000" x="54.125118433448954" y="-7.643454249923693" transform="rotate(180 54.125118433448954 -10.643454249923693)" font-family="sans-serif">ISPARTOF</text></g><g class="relationship" transform="translate(0.13070528774567824 379.23305880177736) rotate(356.71832302793223)"><path class="outline" fill="#A5ABB6" stroke="none" d="M 24.018736134675446,-6.953439040707552 L 24.277555179777966,-5.987513214418485 A 116.53388556270636 116.53388556270636 0 0 1 29.947774698202647,-7.355713765871371 L 29.73761291266926,-8.333380387937112 A 117.53388556270636 117.53388556270636 0 0 0 24.018736134675446,-6.953439040707552 Z M 75.63589058594127,-9.031063627975087 L 75.45554135030379,-8.047460988081838 A 116.53388556270636 116.53388556270636 0 0 1 81.16472660002731,-6.852234682958203 L 80.47670399678779,-3.9321961733779762 L 88.09282022292109,-5.73352169366269 L 82.08209007101334,-10.745619362398505 L 81.39406746777382,-7.825580852818279 A 117.53388556270636 117.53388556270636 0 0 0 75.63589058594127,-9.031063627975087"/><text text-anchor="middle" pointer-events="none" font-size="8px" fill="#000000" x="52.659959578135414" y="-7.444790522224281" font-family="sans-serif">ISPARTOF</text></g><g class="relationship" transform="translate(0.13070528774567824 379.23305880177736) rotate(247.6181613822573)"><path class="outline" fill="#A5ABB6" stroke="none" d="M 24.018736134675446,6.953439040707552 L 24.277555179777966,5.987513214418485 A 122.36425160676781 122.36425160676781 0 0 0 31.39199966175176,7.667761490066027 L 31.191322144003465,8.647418845405326 A 123.36425160676781 123.36425160676781 0 0 1 24.018736134675446,6.953439040707552 Z M 77.10803497212908,9.3286474359995 L 76.93650812572747,8.343467989927106 A 122.36425160676781 122.36425160676781 0 0 0 84.09766730271114,6.875015131710149 L 83.40751687892933,3.955478799935223 L 91.0249438141496,5.75125353151508 L 85.01786786775355,10.767730240743383 L 84.32771744397174,7.848193908968457 A 123.36425160676781 123.36425160676781 0 0 1 77.10803497212908,9.3286474359995"/><text text-anchor="middle" pointer-events="none" font-size="8px" fill="#000000" x="54.12511843344899" y="13.643454249923693" transform="rotate(180 54.12511843344899 10.643454249923693)" font-family="sans-serif">ISPARTOF</text></g><g class="relationship" transform="translate(0.13070528774567824 379.23305880177736) rotate(356.71832302793223)"><path class="outline" fill="#A5ABB6" stroke="none" d="M 24.018736134675446,6.953439040707552 L 24.277555179777966,5.987513214418485 A 116.53388556270636 116.53388556270636 0 0 0 29.94777469820264,7.355713765871371 L 29.737612912669256,8.333380387937112 A 117.53388556270636 117.53388556270636 0 0 1 24.018736134675446,6.953439040707552 Z M 75.63589058594131,9.031063627975087 L 75.45554135030383,8.047460988081838 A 116.53388556270636 116.53388556270636 0 0 0 81.16472660002731,6.852234682958203 L 80.47670399678779,3.9321961733779762 L 88.09282022292109,5.73352169366269 L 82.08209007101334,10.745619362398505 L 81.39406746777382,7.825580852818279 A 117.53388556270636 117.53388556270636 0 0 1 75.63589058594131,9.031063627975087"/><text text-anchor="middle" pointer-events="none" font-size="8px" fill="#000000" x="52.659959578135435" y="13.444790522224295" font-family="sans-serif">ISPARTOF</text></g><g class="relationship" transform="translate(181.4355856075766 543.7042019883012) rotate(531.7644451006041)"><path class="outline" fill="#A5ABB6" stroke="none" d="M 25 0.5 L 26.895243624901532 0.5 L 26.895243624901532 -0.5 L 25 -0.5 Z M 75.12180612490152 0.5 L 77.01704974980306 0.5 L 77.01704974980306 3.5 L 84.01704974980306 0 L 77.01704974980306 -3.5 L 77.01704974980306 -0.5 L 75.12180612490152 -0.5 Z"/><text text-anchor="middle" pointer-events="none" font-size="8px" fill="#000000" x="51.00852487490153" y="3" transform="rotate(180 51.00852487490153 0)" font-family="sans-serif">MEASUR…</text></g><g class="relationship" transform="translate(384.275751889126 413.97953049477195) rotate(317.170289470948)"><path class="outline" fill="#A5ABB6" stroke="none" d="M 25 0.5 L 27.71644151396338 0.5 L 27.71644151396338 -0.5 L 25 -0.5 Z M 70.16566026396339 0.5 L 72.88210177792676 0.5 L 72.88210177792676 3.5 L 79.88210177792676 0 L 72.88210177792676 -3.5 L 72.88210177792676 -0.5 L 70.16566026396339 -0.5 Z"/><text text-anchor="middle" pointer-events="none" font-size="8px" fill="#000000" x="48.94105088896338" y="3" font-family="sans-serif">MEASU…</text></g><g class="relationship" transform="translate(442.2699740528223 41.77896364635988) rotate(475.034685169505)"><path class="outline" fill="#A5ABB6" stroke="none" d="M 25 0.5 L 27.15639810327459 0.5 L 27.15639810327459 -0.5 L 25 -0.5 Z M 75.3829606032746 0.5 L 77.53935870654918 0.5 L 77.53935870654918 3.5 L 84.53935870654918 0 L 77.53935870654918 -3.5 L 77.53935870654918 -0.5 L 75.3829606032746 -0.5 Z"/><text text-anchor="middle" pointer-events="none" font-size="8px" fill="#000000" x="51.26967935327459" y="3" transform="rotate(180 51.26967935327459 0)" font-family="sans-serif">MEASUR…</text></g><g class="relationship" transform="translate(442.2699740528223 41.77896364635988) rotate(393.28109097315564)"><path class="outline" fill="#A5ABB6" stroke="none" d="M 25 0.5 L 26.417550317140822 0.5 L 26.417550317140822 -0.5 L 25 -0.5 Z M 74.64411281714082 0.5 L 76.06166313428164 0.5 L 76.06166313428164 3.5 L 83.06166313428164 0 L 76.06166313428164 -3.5 L 76.06166313428164 -0.5 L 74.64411281714082 -0.5 Z"/><text text-anchor="middle" pointer-events="none" font-size="8px" fill="#000000" x="50.53083156714082" y="3" font-family="sans-serif">MEASUR…</text></g><g class="relationship" transform="translate(442.2699740528223 41.77896364635988) rotate(288.6165864230741)"><path class="outline" fill="#A5ABB6" stroke="none" d="M 25 0.5 L 26.471679531363392 0.5 L 26.471679531363392 -0.5 L 25 -0.5 Z M 74.69824203136339 0.5 L 76.16992156272678 0.5 L 76.16992156272678 3.5 L 83.16992156272678 0 L 76.16992156272678 -3.5 L 76.16992156272678 -0.5 L 74.69824203136339 -0.5 Z"/><text text-anchor="middle" pointer-events="none" font-size="8px" fill="#000000" x="50.58496078136339" y="3" font-family="sans-serif">MEASUR…</text></g><g class="relationship" transform="translate(442.2699740528223 41.77896364635988) rotate(194.33252424998568)"><path class="outline" fill="#A5ABB6" stroke="none" d="M 25 0.5 L 26.7308179465617 0.5 L 26.7308179465617 -0.5 L 25 -0.5 Z M 74.9573804465617 0.5 L 76.6881983931234 0.5 L 76.6881983931234 3.5 L 83.6881983931234 0 L 76.6881983931234 -3.5 L 76.6881983931234 -0.5 L 74.9573804465617 -0.5 Z"/><text text-anchor="middle" pointer-events="none" font-size="8px" fill="#000000" x="50.8440991965617" y="3" transform="rotate(180 50.8440991965617 0)" font-family="sans-serif">MEASUR…</text></g><g class="relationship" transform="translate(116.97499034932123 -233.70060863713772) rotate(367.7235802510816)"><path class="outline" fill="#A5ABB6" stroke="none" d="M 25 0.5 L 25.338514436501818 0.5 L 25.338514436501818 -0.5 L 25 -0.5 Z M 84.67835818650181 0.5 L 85.01687262300364 0.5 L 85.01687262300364 3.5 L 92.01687262300364 0 L 85.01687262300364 -3.5 L 85.01687262300364 -0.5 L 84.67835818650181 -0.5 Z"/><text text-anchor="middle" pointer-events="none" font-size="8px" fill="#000000" x="55.00843631150182" y="3" font-family="sans-serif">MEASURED…</text></g><g class="relationship" transform="translate(116.97499034932123 -233.70060863713772) rotate(535.6058665057002)"><path class="outline" fill="#A5ABB6" stroke="none" d="M 25 0.5 L 27.204838301133307 0.5 L 27.204838301133307 -0.5 L 25 -0.5 Z M 80.76733830113331 0.5 L 82.97217660226661 0.5 L 82.97217660226661 3.5 L 89.97217660226661 0 L 82.97217660226661 -3.5 L 82.97217660226661 -0.5 L 80.76733830113331 -0.5 Z"/><text text-anchor="middle" pointer-events="none" font-size="8px" fill="#000000" x="53.98608830113331" y="3" transform="rotate(180 53.98608830113331 0)" font-family="sans-serif">MEASURE…</text></g><g class="relationship" transform="translate(116.97499034932123 -233.70060863713772) rotate(313.4931727770393)"><path class="outline" fill="#A5ABB6" stroke="none" d="M 25 0.5 L 26.36423926594255 0.5 L 26.36423926594255 -0.5 L 25 -0.5 Z M 79.92673926594256 0.5 L 81.2909785318851 0.5 L 81.2909785318851 3.5 L 88.2909785318851 0 L 81.2909785318851 -3.5 L 81.2909785318851 -0.5 L 79.92673926594256 -0.5 Z"/><text text-anchor="middle" pointer-events="none" font-size="8px" fill="#000000" x="53.14548926594255" y="3" font-family="sans-serif">MEASURE…</text></g><g class="relationship" transform="translate(116.97499034932123 -233.70060863713772) rotate(237.41382935255632)"><path class="outline" fill="#A5ABB6" stroke="none" d="M 25 0.5 L 25.965063052471386 0.5 L 25.965063052471386 -0.5 L 25 -0.5 Z M 79.52756305247138 0.5 L 80.49262610494277 0.5 L 80.49262610494277 3.5 L 87.49262610494277 0 L 80.49262610494277 -3.5 L 80.49262610494277 -0.5 L 79.52756305247138 -0.5 Z"/><text text-anchor="middle" pointer-events="none" font-size="8px" fill="#000000" x="52.746313052471386" y="3" transform="rotate(180 52.746313052471386 0)" font-family="sans-serif">MEASURE…</text></g><g class="relationship" transform="translate(116.97499034932123 -233.70060863713772) rotate(472.49316545128625)"><path class="outline" fill="#A5ABB6" stroke="none" d="M 25 0.5 L 27.206877230721737 0.5 L 27.206877230721737 -0.5 L 25 -0.5 Z M 80.76937723072174 0.5 L 82.97625446144347 0.5 L 82.97625446144347 3.5 L 89.97625446144347 0 L 82.97625446144347 -3.5 L 82.97625446144347 -0.5 L 80.76937723072174 -0.5 Z"/><text text-anchor="middle" pointer-events="none" font-size="8px" fill="#000000" x="53.98812723072174" y="3" transform="rotate(180 53.98812723072174 0)" font-family="sans-serif">MEASURE…</text></g><g class="relationship" transform="translate(116.97499034932123 -233.70060863713772) rotate(420.1387830573473)"><path class="outline" fill="#A5ABB6" stroke="none" d="M 25 0.5 L 26.827078768461455 0.5 L 26.827078768461455 -0.5 L 25 -0.5 Z M 80.38957876846146 0.5 L 82.21665753692291 0.5 L 82.21665753692291 3.5 L 89.21665753692291 0 L 82.21665753692291 -3.5 L 82.21665753692291 -0.5 L 80.38957876846146 -0.5 Z"/><text text-anchor="middle" pointer-events="none" font-size="8px" fill="#000000" x="53.608328768461455" y="3" font-family="sans-serif">MEASURE…</text></g><g class="relationship" transform="translate(-219.39945511223726 -176.0929118291669) rotate(492.5510707925729)"><path class="outline" fill="#A5ABB6" stroke="none" d="M 24.018736134675446,6.953439040707552 L 24.277555179777966,5.987513214418485 A 102.97209638241192 102.97209638241192 0 0 0 25.10764886489793,6.20623180301321 L 24.85689116567728,7.174281686170872 A 103.97209638241192 103.97209638241192 0 0 1 24.018736134675446,6.953439040707552 Z M 73.7429976531892,7.962286185286729 L 73.5235704836956,6.986657302315322 A 102.97209638241192 102.97209638241192 0 0 0 74.3602822190649,6.794806269041927 L 73.67762386195908,3.8735090285212728 L 81.2904188397974,5.688819642548466 L 75.27049336187265,10.6898692564028 L 74.58783500476683,7.768572015882145 A 103.97209638241192 103.97209638241192 0 0 1 73.7429976531892,7.962286185286729"/><text text-anchor="middle" pointer-events="none" font-size="8px" fill="#000000" x="49.261024968660365" y="12.982762442123516" transform="rotate(180 49.261024968660365 9.982762442123516)" font-family="sans-serif">ISAKINDOF</text></g><g class="relationship" transform="translate(-219.39945511223726 -176.0929118291669) rotate(492.5510707925729)"><path class="outline" fill="#A5ABB6" stroke="none" d="M 24.018736134675446,-6.953439040707552 L 24.277555179777966,-5.987513214418485 A 102.97209638241192 102.97209638241192 0 0 1 25.107648864897886,-6.206231803013196 L 24.856891165677233,-7.174281686170858 A 103.97209638241192 103.97209638241192 0 0 0 24.018736134675446,-6.953439040707552 Z M 73.74299765318918,-7.962286185286729 L 73.52357048369556,-6.986657302315322 A 102.97209638241192 102.97209638241192 0 0 1 74.3602822190649,-6.794806269041927 L 73.67762386195908,-3.8735090285212728 L 81.2904188397974,-5.688819642548466 L 75.27049336187265,-10.6898692564028 L 74.58783500476683,-7.768572015882145 A 103.97209638241192 103.97209638241192 0 0 0 73.74299765318918,-7.962286185286729"/><text text-anchor="middle" pointer-events="none" font-size="8px" fill="#000000" x="49.26102496866033" y="-6.9827624421235015" transform="rotate(180 49.26102496866033 -9.982762442123502)" font-family="sans-serif">ISAKINDOF</text></g><g class="relationship" transform="translate(201.4727376639781 308.3002028268492) rotate(265.73526706306865)"><path class="outline" fill="#A5ABB6" stroke="none" d="M 24.018736134675446,-6.953439040707552 L 24.277555179777966,-5.987513214418485 A 109.41331728487954 109.41331728487954 0 0 1 26.68313667341497,-6.602917433390175 L 26.44630381384573,-7.574467842081489 A 110.41331728487954 110.41331728487954 0 0 0 24.018736134675446,-6.953439040707552 Z M 75.37140054354924,-8.341120796635039 L 75.16512474618473,-7.3626269052787165 A 109.41331728487954 109.41331728487954 0 0 1 77.58880711455845,-6.822896924185043 L 76.90352485860048,-3.902214087985746 L 84.51794744168313,-5.710685466316348 L 78.50251678916906,-10.717140705784105 L 77.81723453321109,-7.796457869584808 A 110.41331728487954 110.41331728487954 0 0 0 75.37140054354924,-8.341120796635039"/><text text-anchor="middle" pointer-events="none" font-size="8px" fill="#000000" x="50.87368265579625" y="-7.202189647988575" transform="rotate(180 50.87368265579625 -10.202189647988575)" font-family="sans-serif">ISAKINDOF</text></g><g class="relationship" transform="translate(201.4727376639781 308.3002028268492) rotate(265.73526706306865)"><path class="outline" fill="#A5ABB6" stroke="none" d="M 24.018736134675446,6.953439040707552 L 24.277555179777966,5.987513214418485 A 109.41331728487954 109.41331728487954 0 0 0 26.683136673414992,6.602917433390189 L 26.446303813845752,7.5744678420815035 A 110.41331728487954 110.41331728487954 0 0 1 24.018736134675446,6.953439040707552 Z M 75.37140054354929,8.341120796635025 L 75.16512474618477,7.362626905278702 A 109.41331728487954 109.41331728487954 0 0 0 77.58880711455845,6.822896924185043 L 76.90352485860048,3.902214087985746 L 84.51794744168313,5.710685466316348 L 78.50251678916906,10.717140705784105 L 77.81723453321109,7.796457869584808 A 110.41331728487954 110.41331728487954 0 0 1 75.37140054354929,8.341120796635025"/><text text-anchor="middle" pointer-events="none" font-size="8px" fill="#000000" x="50.87368265579628" y="13.202189647988575" transform="rotate(180 50.87368265579628 10.202189647988575)" font-family="sans-serif">ISAKINDOF</text></g><g class="relationship" transform="translate(-122.3617726955881 188.216120792932) rotate(318.82602097158156)"><path class="outline" fill="#A5ABB6" stroke="none" d="M 25 0.5 L 26.892493535388674 0.5 L 26.892493535388674 -0.5 L 25 -0.5 Z M 80.45499353538867 0.5 L 82.34748707077735 0.5 L 82.34748707077735 3.5 L 89.34748707077735 0 L 82.34748707077735 -3.5 L 82.34748707077735 -0.5 L 80.45499353538867 -0.5 Z"/><text text-anchor="middle" pointer-events="none" font-size="8px" fill="#000000" x="53.673743535388674" y="3" font-family="sans-serif">MEASURE…</text></g><g class="relationship" transform="translate(-122.3617726955881 188.216120792932) rotate(259.3011470853932)"><path class="outline" fill="#A5ABB6" stroke="none" d="M 25 0.5 L 27.3244389798341 0.5 L 27.3244389798341 -0.5 L 25 -0.5 Z M 80.8869389798341 0.5 L 83.2113779596682 0.5 L 83.2113779596682 3.5 L 90.2113779596682 0 L 83.2113779596682 -3.5 L 83.2113779596682 -0.5 L 80.8869389798341 -0.5 Z"/><text text-anchor="middle" pointer-events="none" font-size="8px" fill="#000000" x="54.1056889798341" y="3" transform="rotate(180 54.1056889798341 0)" font-family="sans-serif">MEASURE…</text></g><g class="relationship" transform="translate(-122.3617726955881 188.216120792932) rotate(205.79302102906746)"><path class="outline" fill="#A5ABB6" stroke="none" d="M 25 0.5 L 26.19314420077859 0.5 L 26.19314420077859 -0.5 L 25 -0.5 Z M 85.53298795077859 0.5 L 86.72613215155718 0.5 L 86.72613215155718 3.5 L 93.72613215155718 0 L 86.72613215155718 -3.5 L 86.72613215155718 -0.5 L 85.53298795077859 -0.5 Z"/><text text-anchor="middle" pointer-events="none" font-size="8px" fill="#000000" x="55.86306607577859" y="3" transform="rotate(180 55.86306607577859 0)" font-family="sans-serif">MEASURED…</text></g><g class="relationship" transform="translate(-122.3617726955881 188.216120792932) rotate(517.6195570521726)"><path class="outline" fill="#A5ABB6" stroke="none" d="M 25 0.5 L 26.122580965143214 0.5 L 26.122580965143214 -0.5 L 25 -0.5 Z M 85.46242471514321 0.5 L 86.58500568028643 0.5 L 86.58500568028643 3.5 L 93.58500568028643 0 L 86.58500568028643 -3.5 L 86.58500568028643 -0.5 L 85.46242471514321 -0.5 Z"/><text text-anchor="middle" pointer-events="none" font-size="8px" fill="#000000" x="55.792502840143214" y="3" transform="rotate(180 55.792502840143214 0)" font-family="sans-serif">MEASURED…</text></g><g class="relationship" transform="translate(-122.3617726955881 188.216120792932) rotate(469.65954409875064)"><path class="outline" fill="#A5ABB6" stroke="none" d="M 25 0.5 L 25.044288244158693 0.5 L 25.044288244158693 -0.5 L 25 -0.5 Z M 84.3841319941587 0.5 L 84.42842023831739 0.5 L 84.42842023831739 3.5 L 91.42842023831739 0 L 84.42842023831739 -3.5 L 84.42842023831739 -0.5 L 84.3841319941587 -0.5 Z"/><text text-anchor="middle" pointer-events="none" font-size="8px" fill="#000000" x="54.71421011915869" y="3" transform="rotate(180 54.71421011915869 0)" font-family="sans-serif">MEASURED…</text></g><g class="relationship" transform="translate(-43.79363654464497 272.56866525908833) rotate(227.03340071756884)"><path class="outline" fill="#A5ABB6" stroke="none" d="M 24.018736134675446,6.953439040707552 L 24.277555179777966,5.987513214418485 A 122.20604511077174 122.20604511077174 0 0 0 31.352747340712025,7.659428752088402 L 31.15182389442805,8.639035698130215 A 123.20604511077174 123.20604511077174 0 0 1 24.018736134675446,6.953439040707552 Z M 77.06807636246559,9.32070128202102 L 76.89632124069104,8.335561607586882 A 122.20604511077174 122.20604511077174 0 0 0 84.01802641695161,6.874411012450844 L 83.32793242093773,3.9548613422678547 L 90.94532464671423,5.750783300115633 L 84.93815174497011,10.767143906028164 L 84.24805774895623,7.847594235845174 A 123.20604511077174 123.20604511077174 0 0 1 77.06807636246559,9.32070128202102"/><text text-anchor="middle" pointer-events="none" font-size="8px" fill="#000000" x="54.08533282461858" y="13.638063306378086" transform="rotate(180 54.08533282461858 10.638063306378086)" font-family="sans-serif">ISPARTOF</text></g><g class="relationship" transform="translate(-43.79363654464497 272.56866525908833) rotate(227.03340071756884)"><path class="outline" fill="#A5ABB6" stroke="none" d="M 24.018736134675446,-6.953439040707552 L 24.277555179777966,-5.987513214418485 A 122.20604511077174 122.20604511077174 0 0 1 31.35274734071196,-7.659428752088388 L 31.151823894427984,-8.639035698130215 A 123.20604511077174 123.20604511077174 0 0 0 24.018736134675446,-6.953439040707552 Z M 77.06807636246553,-9.320701282021034 L 76.89632124069098,-8.335561607586897 A 122.20604511077174 122.20604511077174 0 0 1 84.01802641695161,-6.874411012450844 L 83.32793242093773,-3.9548613422678547 L 90.94532464671423,-5.750783300115633 L 84.93815174497011,-10.767143906028164 L 84.24805774895623,-7.847594235845174 A 123.20604511077174 123.20604511077174 0 0 0 77.06807636246553,-9.320701282021034"/><text text-anchor="middle" pointer-events="none" font-size="8px" fill="#000000" x="54.085332824618526" y="-7.638063306378086" transform="rotate(180 54.085332824618526 -10.638063306378086)" font-family="sans-serif">ISPARTOF</text></g><g class="relationship" transform="translate(112.37281994352878 372.7972325749542) rotate(324.10023386183394)"><path class="outline" fill="#A5ABB6" stroke="none" d="M 24.018736134675446,6.953439040707552 L 24.277555179777966,5.987513214418485 A 111.68292349324113 111.68292349324113 0 0 0 28.750127375130127,7.0876102258325915 L 28.531355385167803,8.0633862331252 A 112.68292349324113 112.68292349324113 0 0 1 24.018736134675446,6.953439040707552 Z M 74.41167735074836,8.775326820892445 L 74.22328629822597,7.793232725945572 A 111.68292349324113 111.68292349324113 0 0 0 78.72783807136237,6.832436805735244 L 78.0416647205989,3.911963191284665 L 85.65663873020765,5.718111256362243 L 79.64273587238034,10.726401625002683 L 78.95656252161687,7.805928010552104 A 112.68292349324113 112.68292349324113 0 0 1 74.41167735074836,8.775326820892445"/><text text-anchor="middle" pointer-events="none" font-size="8px" fill="#000000" x="51.44265168859281" y="13.279512845480994" font-family="sans-serif">ISPARTOF</text></g><g class="relationship" transform="translate(112.37281994352878 372.7972325749542) rotate(324.10023386183394)"><path class="outline" fill="#A5ABB6" stroke="none" d="M 24.018736134675446,-6.953439040707552 L 24.277555179777966,-5.987513214418485 A 111.68292349324113 111.68292349324113 0 0 1 28.750127375130102,-7.087610225832577 L 28.531355385167778,-8.063386233125186 A 112.68292349324113 112.68292349324113 0 0 0 24.018736134675446,-6.953439040707552 Z M 74.41167735074835,-8.775326820892445 L 74.22328629822596,-7.793232725945572 A 111.68292349324113 111.68292349324113 0 0 1 78.72783807136237,-6.832436805735244 L 78.0416647205989,-3.911963191284665 L 85.65663873020765,-5.718111256362243 L 79.64273587238034,-10.726401625002683 L 78.95656252161687,-7.805928010552104 A 112.68292349324113 112.68292349324113 0 0 0 74.41167735074835,-8.775326820892445"/><text text-anchor="middle" pointer-events="none" font-size="8px" fill="#000000" x="51.44265168859279" y="-7.279512845480994" font-family="sans-serif">ISPARTOF</text></g></g><g class="layer nodes"><g class="node" transform="translate(0.13070528774567824,379.23305880177736)"><circle class="outline" cx="0" cy="0" r="25" fill="#6DCE9E" stroke="#60B58B" stroke-width="2px"/><text text-anchor="middle" pointer-events="none" y="5" font-size="10px" fill="#FFFFFF" font-family="sans-serif"> trm_4fe…</text></g><g class="node" transform="translate(-43.79363654464497,272.56866525908833)"><circle class="outline" cx="0" cy="0" r="25" fill="#6DCE9E" stroke="#60B58B" stroke-width="2px"/><text text-anchor="middle" pointer-events="none" y="5" font-size="10px" fill="#FFFFFF" font-family="sans-serif"> trm_4a3…</text></g><g class="node" transform="translate(112.37281994352878,372.7972325749542)"><circle class="outline" cx="0" cy="0" r="25" fill="#6DCE9E" stroke="#60B58B" stroke-width="2px"/><text text-anchor="middle" pointer-events="none" y="5" font-size="10px" fill="#FFFFFF" font-family="sans-serif"> trm_4a3…</text></g><g class="node" transform="translate(73.54277070050034,559.32014344498)"><circle class="outline" cx="0" cy="0" r="25" fill="#68BDF6" stroke="#5CA8DB" stroke-width="2px"/><text text-anchor="middle" pointer-events="none" y="5" font-size="10px" fill="#FFFFFF" font-family="sans-serif"> cnt_50f9…</text></g><g class="node" transform="translate(181.4355856075766,543.7042019883012)"><circle class="outline" cx="0" cy="0" r="25" fill="#6DCE9E" stroke="#60B58B" stroke-width="2px"/><text text-anchor="middle" pointer-events="none" y="5" font-size="10px" fill="#FFFFFF" font-family="sans-serif"> trm_4a3…</text></g><g class="node" transform="translate(384.275751889126,413.97953049477195)"><circle class="outline" cx="0" cy="0" r="25" fill="#6DCE9E" stroke="#60B58B" stroke-width="2px"/><text text-anchor="middle" pointer-events="none" y="5" font-size="10px" fill="#FFFFFF" font-family="sans-serif"> trm_4a3…</text></g><g class="node" transform="translate(461.1939196044905,342.6784032339323)"><circle class="outline" cx="0" cy="0" r="25" fill="#68BDF6" stroke="#5CA8DB" stroke-width="2px"/><text text-anchor="middle" pointer-events="none" y="5" font-size="10px" fill="#FFFFFF" font-family="sans-serif"> cnt_4de…</text></g><g class="node" transform="translate(442.2699740528223,41.77896364635988)"><circle class="outline" cx="0" cy="0" r="25" fill="#6DCE9E" stroke="#60B58B" stroke-width="2px"/><text text-anchor="middle" pointer-events="none" y="5" font-size="10px" fill="#FFFFFF" font-family="sans-serif"> trm_4a3…</text></g><g class="node" transform="translate(395.9165501913282,141.0272946255694)"><circle class="outline" cx="0" cy="0" r="25" fill="#68BDF6" stroke="#5CA8DB" stroke-width="2px"/><text text-anchor="middle" pointer-events="none" y="5" font-size="10px" fill="#FFFFFF" font-family="sans-serif"> cnt_4dff…</text></g><g class="node" transform="translate(532.6082824783769,101.07747180766478)"><circle class="outline" cx="0" cy="0" r="25" fill="#68BDF6" stroke="#5CA8DB" stroke-width="2px"/><text text-anchor="middle" pointer-events="none" y="5" font-size="10px" fill="#FFFFFF" font-family="sans-serif"> cnt_4df7…</text></g><g class="node" transform="translate(476.80145436357526,-60.73107878088013)"><circle class="outline" cx="0" cy="0" r="25" fill="#68BDF6" stroke="#5CA8DB" stroke-width="2px"/><text text-anchor="middle" pointer-events="none" y="5" font-size="10px" fill="#FFFFFF" font-family="sans-serif"> cnt_4df6…</text></g><g class="node" transform="translate(336.9646561630399,14.87330450046974)"><circle class="outline" cx="0" cy="0" r="25" fill="#68BDF6" stroke="#5CA8DB" stroke-width="2px"/><text text-anchor="middle" pointer-events="none" y="5" font-size="10px" fill="#FFFFFF" font-family="sans-serif"> cnt_4de…</text></g><g class="node" transform="translate(116.97499034932123,-233.70060863713772)"><circle class="outline" cx="0" cy="0" r="25" fill="#6DCE9E" stroke="#60B58B" stroke-width="2px"/><text text-anchor="middle" pointer-events="none" y="5" font-size="10px" fill="#FFFFFF" font-family="sans-serif"> trm_4a3…</text></g><g class="node" transform="translate(232.93028278806213,-217.97424116354938)"><circle class="outline" cx="0" cy="0" r="25" fill="#68BDF6" stroke="#5CA8DB" stroke-width="2px"/><text text-anchor="middle" pointer-events="none" y="5" font-size="10px" fill="#FFFFFF" font-family="sans-serif"> cnt_4dfa…</text></g><g class="node" transform="translate(2.3407627043254045,-224.8917923206253)"><circle class="outline" cx="0" cy="0" r="25" fill="#68BDF6" stroke="#5CA8DB" stroke-width="2px"/><text text-anchor="middle" pointer-events="none" y="5" font-size="10px" fill="#FFFFFF" font-family="sans-serif"> cnt_4dfa…</text></g><g class="node" transform="translate(194.94956108196584,-315.8882727709471)"><circle class="outline" cx="0" cy="0" r="25" fill="#68BDF6" stroke="#5CA8DB" stroke-width="2px"/><text text-anchor="middle" pointer-events="none" y="5" font-size="10px" fill="#FFFFFF" font-family="sans-serif"> cnt_4dfa…</text></g><g class="node" transform="translate(56.39012598417358,-328.4849171372429)"><circle class="outline" cx="0" cy="0" r="25" fill="#68BDF6" stroke="#5CA8DB" stroke-width="2px"/><text text-anchor="middle" pointer-events="none" y="5" font-size="10px" fill="#FFFFFF" font-family="sans-serif"> cnt_4dfa…</text></g><g class="node" transform="translate(72.98815395936296,-127.47115267324018)"><circle class="outline" cx="0" cy="0" r="25" fill="#68BDF6" stroke="#5CA8DB" stroke-width="2px"/><text text-anchor="middle" pointer-events="none" y="5" font-size="10px" fill="#FFFFFF" font-family="sans-serif"> cnt_4df6…</text></g><g class="node" transform="translate(173.84355894665487,-134.64804297325858)"><circle class="outline" cx="0" cy="0" r="25" fill="#68BDF6" stroke="#5CA8DB" stroke-width="2px"/><text text-anchor="middle" pointer-events="none" y="5" font-size="10px" fill="#FFFFFF" font-family="sans-serif"> cnt_4df2…</text></g><g class="node" transform="translate(-219.39945511223726,-176.0929118291669)"><circle class="outline" cx="0" cy="0" r="25" fill="#6DCE9E" stroke="#60B58B" stroke-width="2px"/><text text-anchor="middle" pointer-events="none" y="5" font-size="10px" fill="#FFFFFF" font-family="sans-serif"> trm_4a3…</text></g><g class="node" transform="translate(-290.83452313488556,-98.27458588052983)"><circle class="outline" cx="0" cy="0" r="25" fill="#6DCE9E" stroke="#60B58B" stroke-width="2px"/><text text-anchor="middle" pointer-events="none" y="5" font-size="10px" fill="#FFFFFF" font-family="sans-serif"> trm_4a3…</text></g><g class="node" transform="translate(193.37759783621595,199.7446462525424)"><circle class="outline" cx="0" cy="0" r="25" fill="#6DCE9E" stroke="#60B58B" stroke-width="2px"/><text text-anchor="middle" pointer-events="none" y="5" font-size="10px" fill="#FFFFFF" font-family="sans-serif"> trm_4a3…</text></g><g class="node" transform="translate(201.4727376639781,308.3002028268492)"><circle class="outline" cx="0" cy="0" r="25" fill="#6DCE9E" stroke="#60B58B" stroke-width="2px"/><text text-anchor="middle" pointer-events="none" y="5" font-size="10px" fill="#FFFFFF" font-family="sans-serif"> trm_4a3…</text></g><g class="node" transform="translate(-36.29082103608221,112.93571776645642)"><circle class="outline" cx="0" cy="0" r="25" fill="#68BDF6" stroke="#5CA8DB" stroke-width="2px"/><text text-anchor="middle" pointer-events="none" y="5" font-size="10px" fill="#FFFFFF" font-family="sans-serif"> cnt_55a…</text></g><g class="node" transform="translate(-122.3617726955881,188.216120792932)"><circle class="outline" cx="0" cy="0" r="25" fill="#6DCE9E" stroke="#60B58B" stroke-width="2px"/><text text-anchor="middle" pointer-events="none" y="5" font-size="10px" fill="#FFFFFF" font-family="sans-serif"> trm_4a3…</text></g><g class="node" transform="translate(-143.75041281613417,75.00751827015866)"><circle class="outline" cx="0" cy="0" r="25" fill="#68BDF6" stroke="#5CA8DB" stroke-width="2px"/><text text-anchor="middle" pointer-events="none" y="5" font-size="10px" fill="#FFFFFF" font-family="sans-serif"> cnt_4e0…</text></g><g class="node" transform="translate(-229.2594314543245,136.5558361676053)"><circle class="outline" cx="0" cy="0" r="25" fill="#68BDF6" stroke="#5CA8DB" stroke-width="2px"/><text text-anchor="middle" pointer-events="none" y="5" font-size="10px" fill="#FFFFFF" font-family="sans-serif"> cnt_4e0…</text></g><g class="node" transform="translate(-232.01448762060255,233.36792786382426)"><circle class="outline" cx="0" cy="0" r="25" fill="#68BDF6" stroke="#5CA8DB" stroke-width="2px"/><text text-anchor="middle" pointer-events="none" y="5" font-size="10px" fill="#FFFFFF" font-family="sans-serif"> cnt_4e0…</text></g><g class="node" transform="translate(-161.5318341726643,297.85773389248607)"><circle class="outline" cx="0" cy="0" r="25" fill="#68BDF6" stroke="#5CA8DB" stroke-width="2px"/><text text-anchor="middle" pointer-events="none" y="5" font-size="10px" fill="#FFFFFF" font-family="sans-serif"> cnt_534…</text></g></g></svg>